
<svg width="223" height="40" viewBox="0 0 223 40" fill="none" xmlns="http://www.w3.org/2000/svg">
<style>
    .base {
      fill: #393E41;
    }

    @media (prefers-color-scheme: dark) {
      .base {
        fill: #EAEDF3;
      }
    }
  </style>
<mask id="mask0_201_12" style="mask-type:alpha" maskUnits="userSpaceOnUse" x="0" y="0" width="223" height="40">
<rect width="223" height="40" fill="#D9D9D9"/>
</mask>
<g mask="url(#mask0_201_12)">
<path d="M1.536 38.816C1.28 38.144 1.072 37.296 0.912 36.272C0.752 35.248 0.656 34.192 0.624 33.104C0.624 31.984 0.656 30.912 0.72 29.888C0.816 28.864 0.976 28.016 1.2 27.344C1.712 27.152 2.208 26.832 2.688 26.384C3.168 25.904 3.568 25.152 3.888 24.128C4.208 23.072 4.368 21.6 4.368 19.712C4.368 17.664 4.176 16.128 3.792 15.104C3.44 14.048 3.008 13.344 2.496 12.992C2.016 12.608 1.584 12.416 1.2 12.416C0.912 11.84 0.704 11.056 0.576 10.064C0.448 9.072 0.384 8.016 0.384 6.896C0.416 5.744 0.512 4.64 0.672 3.584C0.832 2.496 1.072 1.568 1.392 0.799998C2.288 0.863997 3.328 0.959997 4.512 1.088C5.728 1.184 6.96 1.28 8.208 1.376C9.488 1.44 10.672 1.472 11.76 1.472C14.096 1.472 16.544 1.424 19.104 1.328C21.696 1.2 24.704 1.024 28.128 0.799998C27.616 2.912 27.408 4.64 27.504 5.984C27.632 7.328 28.224 8.496 29.28 9.488C30.336 10.48 31.968 11.504 34.176 12.56L34.8 11.312C32.784 10.352 31.312 9.456 30.384 8.624C29.488 7.76 29.008 6.736 28.944 5.552C28.88 4.336 29.088 2.752 29.568 0.799998C30.944 0.831998 32.496 0.959998 34.224 1.184C35.984 1.408 37.984 1.52 40.224 1.52C42.208 1.52 44 1.44 45.6 1.28C47.232 1.088 48.704 0.927999 50.016 0.799998C50.304 1.568 50.528 2.496 50.688 3.584C50.848 4.64 50.928 5.744 50.928 6.896C50.928 8.048 50.864 9.12 50.736 10.112C50.608 11.104 50.416 11.888 50.16 12.464C49.776 12.464 49.328 12.656 48.816 13.04C48.336 13.392 47.92 14.08 47.568 15.104C47.216 16.128 47.04 17.664 47.04 19.712C47.04 21.6 47.2 23.072 47.52 24.128C47.84 25.152 48.24 25.904 48.72 26.384C49.2 26.832 49.696 27.152 50.208 27.344C50.432 28.016 50.576 28.864 50.64 29.888C50.736 30.912 50.768 31.984 50.736 33.104C50.736 34.192 50.656 35.248 50.496 36.272C50.336 37.296 50.128 38.144 49.872 38.816C48.592 38.656 46.976 38.48 45.024 38.288C43.104 38.128 41.104 38.048 39.024 38.048C36.336 38.048 33.728 38.144 31.2 38.336C28.672 38.528 25.936 38.688 22.992 38.816C23.44 36.704 23.616 34.928 23.52 33.488C23.424 32.048 22.992 30.784 22.224 29.696C21.456 28.576 20.304 27.52 18.768 26.528L18 27.68C19.376 28.608 20.384 29.584 21.024 30.608C21.664 31.6 22 32.768 22.032 34.112C22.096 35.424 21.92 36.992 21.504 38.816C20.448 38.688 19.152 38.528 17.616 38.336C16.112 38.144 14.32 38.048 12.24 38.048C10.288 38.048 8.336 38.144 6.384 38.336C4.464 38.528 2.848 38.688 1.536 38.816Z" fill="#D2302C"/>
<path class="base" d="M48.8801 38.816C48.6241 38.144 48.4161 37.28 48.2561 36.224C48.0961 35.136 48.0001 34.016 47.9681 32.864C47.9681 31.68 48.0001 30.56 48.0641 29.504C48.1601 28.416 48.3201 27.536 48.5441 26.864C49.4721 26.512 50.4961 26.112 51.6161 25.664C52.7361 25.216 53.8881 24.512 55.0721 23.552C56.2561 22.56 57.3921 21.136 58.4801 19.28C59.6001 17.392 60.5761 14.864 61.4081 11.696L59.9681 11.408C59.3921 13.584 58.6881 15.504 57.8561 17.168C57.0241 18.832 55.8881 20.176 54.4481 21.2C53.0401 22.224 51.1681 22.896 48.8321 23.216C48.5121 21.168 48.2721 19.008 48.1121 16.736C47.9841 14.432 47.9201 12.208 47.9201 10.064C47.9521 7.92 48.0321 6.032 48.1601 4.4C48.3201 2.736 48.4961 1.52 48.6881 0.751999C51.4081 0.847998 54.0001 0.943997 56.4641 1.04C58.9281 1.104 61.3921 1.168 63.8561 1.232C66.3521 1.264 68.9441 1.28 71.6321 1.28C73.4881 1.28 75.4721 1.264 77.5841 1.232C79.7281 1.2 81.8081 1.168 83.8241 1.136C85.8721 1.072 87.6801 1.024 89.2481 0.991999C90.8161 0.927998 91.9681 0.863997 92.7041 0.799998C93.0241 1.568 93.2641 2.512 93.4241 3.632C93.5841 4.752 93.6641 5.92 93.6641 7.136C93.6961 8.32 93.6481 9.44 93.5201 10.496C93.3921 11.52 93.1841 12.32 92.8961 12.896C90.2401 13.504 87.9361 15.056 85.9841 17.552C84.0641 20.048 82.4961 23.632 81.2801 28.304L82.7201 28.64C83.3601 26.304 84.1121 24.224 84.9761 22.4C85.8721 20.576 86.9761 19.152 88.2881 18.128C89.6321 17.104 91.2801 16.656 93.2321 16.784C93.4241 18.096 93.5681 19.6 93.6641 21.296C93.7601 22.96 93.8081 24.688 93.8081 26.48C93.8081 28.272 93.7761 30 93.7121 31.664C93.6481 33.296 93.5521 34.752 93.4241 36.032C93.2961 37.28 93.1521 38.208 92.9921 38.816C90.5601 38.784 88.2561 38.704 86.0801 38.576C83.9361 38.48 81.7121 38.368 79.4081 38.24C77.1041 38.144 74.5121 38.096 71.6321 38.096C65.3601 38.096 60.3841 38.176 56.7041 38.336C53.0241 38.496 50.4161 38.656 48.8801 38.816ZM95.8534 38.816C95.5654 38.144 95.3414 37.296 95.1814 36.272C95.0214 35.248 94.9254 34.192 94.8934 33.104C94.8614 31.984 94.8934 30.912 94.9894 29.888C95.1174 28.864 95.2934 28.016 95.5174 27.344C95.9974 27.152 96.4774 26.832 96.9574 26.384C97.4694 25.904 97.8854 25.152 98.2054 24.128C98.5254 23.072 98.6854 21.6 98.6854 19.712C98.6854 17.664 98.4934 16.128 98.1094 15.104C97.7254 14.048 97.2774 13.344 96.7654 12.992C96.2854 12.608 95.8694 12.416 95.5174 12.416C95.2294 11.84 95.0054 11.056 94.8454 10.064C94.6854 9.072 94.6054 8.016 94.6054 6.896C94.6374 5.744 94.7334 4.64 94.8934 3.584C95.0854 2.496 95.3574 1.568 95.7094 0.799998C96.6694 0.863997 97.9014 0.959997 99.4054 1.088C100.909 1.216 102.493 1.328 104.157 1.424C105.853 1.488 107.421 1.52 108.861 1.52C110.461 1.52 112.109 1.488 113.805 1.424C115.501 1.328 117.101 1.216 118.605 1.088C120.109 0.959997 121.341 0.863997 122.301 0.799998C122.621 1.568 122.861 2.496 123.021 3.584C123.181 4.64 123.261 5.744 123.261 6.896C123.261 8.048 123.197 9.12 123.069 10.112C122.941 11.104 122.733 11.888 122.445 12.464C121.965 12.464 121.485 12.656 121.005 13.04C120.525 13.392 120.125 14.08 119.805 15.104C119.485 16.128 119.325 17.664 119.325 19.712C119.325 21.6 119.485 23.072 119.805 24.128C120.157 25.152 120.573 25.904 121.053 26.384C121.533 26.832 122.013 27.152 122.493 27.344C122.749 28.016 122.925 28.864 123.021 29.888C123.117 30.912 123.149 31.984 123.117 33.104C123.085 34.192 122.989 35.248 122.829 36.272C122.669 37.296 122.445 38.144 122.157 38.816C121.197 38.72 119.965 38.608 118.461 38.48C116.957 38.384 115.357 38.288 113.661 38.192C111.965 38.096 110.317 38.048 108.717 38.048C107.245 38.048 105.693 38.096 104.061 38.192C102.461 38.288 100.925 38.384 99.4534 38.48C98.0134 38.608 96.8134 38.72 95.8534 38.816ZM125.196 38.816C124.94 38.144 124.732 37.296 124.572 36.272C124.412 35.248 124.316 34.192 124.284 33.104C124.284 31.984 124.316 30.912 124.38 29.888C124.476 28.864 124.636 28.016 124.86 27.344C125.372 27.152 125.868 26.832 126.348 26.384C126.828 25.904 127.228 25.152 127.548 24.128C127.868 23.072 128.028 21.6 128.028 19.712C128.028 17.664 127.836 16.128 127.452 15.104C127.1 14.048 126.668 13.344 126.156 12.992C125.676 12.608 125.244 12.416 124.86 12.416C124.572 11.84 124.364 11.056 124.236 10.064C124.108 9.072 124.044 8.016 124.044 6.896C124.076 5.744 124.172 4.64 124.332 3.584C124.492 2.496 124.732 1.568 125.052 0.799998C125.948 0.863997 126.988 0.959997 128.172 1.088C129.388 1.184 130.62 1.28 131.868 1.376C133.148 1.44 134.332 1.472 135.42 1.472C137.756 1.472 140.204 1.424 142.764 1.328C145.356 1.2 148.364 1.024 151.788 0.799998C151.276 2.912 151.068 4.64 151.164 5.984C151.292 7.328 151.884 8.496 152.94 9.488C153.996 10.48 155.628 11.504 157.836 12.56L158.46 11.312C156.444 10.352 154.972 9.456 154.044 8.624C153.148 7.76 152.668 6.736 152.604 5.552C152.54 4.336 152.748 2.752 153.228 0.799998C154.604 0.831998 156.156 0.959998 157.884 1.184C159.644 1.408 161.644 1.52 163.884 1.52C165.868 1.52 167.66 1.44 169.26 1.28C170.892 1.088 172.364 0.927999 173.676 0.799998C173.964 1.568 174.188 2.496 174.348 3.584C174.508 4.64 174.588 5.744 174.588 6.896C174.588 8.048 174.524 9.12 174.396 10.112C174.268 11.104 174.076 11.888 173.82 12.464C173.436 12.464 172.988 12.656 172.476 13.04C171.996 13.392 171.58 14.08 171.228 15.104C170.876 16.128 170.7 17.664 170.7 19.712C170.7 21.6 170.86 23.072 171.18 24.128C171.5 25.152 171.9 25.904 172.38 26.384C172.86 26.832 173.356 27.152 173.868 27.344C174.092 28.016 174.236 28.864 174.3 29.888C174.396 30.912 174.428 31.984 174.396 33.104C174.396 34.192 174.316 35.248 174.156 36.272C173.996 37.296 173.788 38.144 173.532 38.816C172.252 38.656 170.636 38.48 168.684 38.288C166.764 38.128 164.764 38.048 162.684 38.048C159.996 38.048 157.388 38.144 154.86 38.336C152.332 38.528 149.596 38.688 146.652 38.816C147.1 36.704 147.276 34.928 147.18 33.488C147.084 32.048 146.652 30.784 145.884 29.696C145.116 28.576 143.964 27.52 142.428 26.528L141.66 27.68C143.036 28.608 144.044 29.584 144.684 30.608C145.324 31.6 145.66 32.768 145.692 34.112C145.756 35.424 145.58 36.992 145.164 38.816C144.108 38.688 142.812 38.528 141.276 38.336C139.772 38.144 137.98 38.048 135.9 38.048C133.948 38.048 131.996 38.144 130.044 38.336C128.124 38.528 126.508 38.688 125.196 38.816ZM176.524 38.816C176.268 38.144 176.06 37.296 175.9 36.272C175.74 35.248 175.644 34.192 175.612 33.104C175.612 31.984 175.644 30.912 175.708 29.888C175.804 28.864 175.964 28.016 176.188 27.344C176.7 27.152 177.196 26.832 177.676 26.384C178.156 25.904 178.556 25.152 178.876 24.128C179.196 23.072 179.356 21.6 179.356 19.712C179.356 17.664 179.164 16.128 178.78 15.104C178.428 14.048 177.996 13.344 177.484 12.992C177.004 12.608 176.572 12.416 176.188 12.416C175.9 11.84 175.692 11.056 175.564 10.064C175.436 9.072 175.372 8.016 175.372 6.896C175.404 5.744 175.5 4.64 175.66 3.584C175.82 2.496 176.06 1.568 176.38 0.799998C176.892 0.831998 177.724 0.879998 178.876 0.943999C180.06 0.975999 181.42 1.024 182.956 1.088C184.524 1.12 186.156 1.152 187.852 1.184C189.548 1.216 191.212 1.248 192.844 1.28C194.508 1.28 195.996 1.28 197.308 1.28C200.668 1.28 204.396 1.232 208.492 1.136C212.62 1.04 216.716 0.911999 220.78 0.751999C220.94 1.36 221.084 2.24 221.212 3.392C221.34 4.544 221.436 5.824 221.5 7.232C221.564 8.64 221.596 10.064 221.596 11.504C221.596 12.944 221.548 14.272 221.452 15.488C221.356 16.672 221.212 17.6 221.02 18.272C219.516 18.464 217.852 18.592 216.028 18.656C214.204 18.72 212.348 18.72 210.46 18.656C208.604 18.592 206.844 18.464 205.18 18.272C204.796 16.768 204.796 15.28 205.18 13.808H199.612V15.824H204.076V22.496H199.564V24.56H205.18C204.796 23.056 204.796 21.552 205.18 20.048C207.868 19.888 210.62 19.808 213.436 19.808C216.252 19.808 218.876 19.888 221.308 20.048C221.404 20.624 221.484 21.552 221.548 22.832C221.612 24.08 221.644 25.504 221.644 27.104C221.644 28.672 221.612 30.256 221.548 31.856C221.516 33.456 221.452 34.88 221.356 36.128C221.26 37.376 221.132 38.272 220.972 38.816C217.612 38.752 213.964 38.608 210.028 38.384C206.092 38.192 202.236 38.096 198.46 38.096C196.412 38.096 194.252 38.112 191.98 38.144C189.74 38.208 187.564 38.272 185.452 38.336C183.372 38.432 181.532 38.512 179.932 38.576C178.364 38.672 177.228 38.752 176.524 38.816Z" fill="currentColor"/>
</g>
</svg>
