<svg width="36" height="36" viewBox="0 0 36 36" fill="none" xmlns="http://www.w3.org/2000/svg">
<mask id="mask0_201_18" style="mask-type:alpha" maskUnits="userSpaceOnUse" x="0" y="0" width="36" height="36">
<rect width="36" height="36" fill="#D9D9D9"/>
</mask>
<g mask="url(#mask0_201_18)">
<path d="M5.768 27.408C5.64 27.072 5.536 26.648 5.456 26.136C5.376 25.624 5.328 25.096 5.312 24.552C5.312 23.992 5.328 23.456 5.36 22.944C5.408 22.432 5.488 22.008 5.6 21.672C5.856 21.576 6.104 21.416 6.344 21.192C6.584 20.952 6.784 20.576 6.944 20.064C7.104 19.536 7.184 18.8 7.184 17.856C7.184 16.832 7.088 16.064 6.896 15.552C6.72 15.024 6.504 14.672 6.248 14.496C6.008 14.304 5.792 14.208 5.6 14.208C5.456 13.92 5.352 13.528 5.288 13.032C5.224 12.536 5.192 12.008 5.192 11.448C5.208 10.872 5.256 10.32 5.336 9.792C5.416 9.248 5.536 8.784 5.696 8.4C6.144 8.432 6.664 8.48 7.256 8.544C7.864 8.592 8.48 8.64 9.104 8.688C9.744 8.72 10.336 8.736 10.88 8.736C12.048 8.736 13.272 8.712 14.552 8.664C15.848 8.6 17.352 8.512 19.064 8.4C18.808 9.456 18.704 10.32 18.752 10.992C18.816 11.664 19.112 12.248 19.64 12.744C20.168 13.24 20.984 13.752 22.088 14.28L22.4 13.656C21.392 13.176 20.656 12.728 20.192 12.312C19.744 11.88 19.504 11.368 19.472 10.776C19.44 10.168 19.544 9.376 19.784 8.4C20.472 8.416 21.248 8.48 22.112 8.592C22.992 8.704 23.992 8.76 25.112 8.76C26.104 8.76 27 8.72 27.8 8.64C28.616 8.544 29.352 8.464 30.008 8.4C30.152 8.784 30.264 9.248 30.344 9.792C30.424 10.32 30.464 10.872 30.464 11.448C30.464 12.024 30.432 12.56 30.368 13.056C30.304 13.552 30.208 13.944 30.08 14.232C29.888 14.232 29.664 14.328 29.408 14.52C29.168 14.696 28.96 15.04 28.784 15.552C28.608 16.064 28.52 16.832 28.52 17.856C28.52 18.8 28.6 19.536 28.76 20.064C28.92 20.576 29.12 20.952 29.36 21.192C29.6 21.416 29.848 21.576 30.104 21.672C30.216 22.008 30.288 22.432 30.32 22.944C30.368 23.456 30.384 23.992 30.368 24.552C30.368 25.096 30.328 25.624 30.248 26.136C30.168 26.648 30.064 27.072 29.936 27.408C29.296 27.328 28.488 27.24 27.512 27.144C26.552 27.064 25.552 27.024 24.512 27.024C23.168 27.024 21.864 27.072 20.6 27.168C19.336 27.264 17.968 27.344 16.496 27.408C16.72 26.352 16.808 25.464 16.76 24.744C16.712 24.024 16.496 23.392 16.112 22.848C15.728 22.288 15.152 21.76 14.384 21.264L14 21.84C14.688 22.304 15.192 22.792 15.512 23.304C15.832 23.8 16 24.384 16.016 25.056C16.048 25.712 15.96 26.496 15.752 27.408C15.224 27.344 14.576 27.264 13.808 27.168C13.056 27.072 12.16 27.024 11.12 27.024C10.144 27.024 9.168 27.072 8.192 27.168C7.232 27.264 6.424 27.344 5.768 27.408Z" fill="#D2302C"/>
</g>
</svg>
